# xmcd
#
# Track frame offsets:
#	150
#	10081
#	25327
#	35665
#	48546
#	60636
#	72381
#	85450
#	98664
#	108838
#	118618
#	127808
#	142509
#	153956
#	166298
#	178956
#	193038
#	204720
#	216477
#	229043
#	240672
#	248855
#	263017
#	277350
#	290545
#
# Disc length: 4040 seconds
#
# Revision: 0
# Processed by: cddbd v1.5.1PL2 Copyright (c) Steve Scherf et al.
# Submitted via: EasyCDDAExtractor 9.0.0.1
#
DISCID=6e0fc619
DTITLE=Merle Haggard - Hag - Someday We'll Look Back
DYEAR=2006
DGENRE=Country
TTITLE0=Soldier's Last Letter
TTITLE1=Shelly's Winter Love
TTITLE2=Jesus, Take A Hold
TTITLE3=I Can't Be Myself
TTITLE4=I'm A Good Loser
TTITLE5=No Reason To Quit
TTITLE6=If You've Got The Time
TTITLE7=The Farmer's Daughter
TTITLE8=I've Done It All
TTITLE9=I Ain't Got Nobody (Previously Unreleased - Bonus Track)
TTITLE10=I'll Be A Hero When I Strike (Bonus Track)
TTITLE11=Trouble In Mind (Bonus Track)
TTITLE12=Someday We'll Look Back
TTITLE13=Train Of Life
TTITLE14=One Sweet Hello
TTITLE15=One Row At A Time
TTITLE16=Big Time Annie's Square
TTITLE17=I'd Rather Be Gone
TTITLE18=California Cottonfields
TTITLE19=Carolyn
TTITLE20=Tulare Dust
TTITLE21=Huntsville
TTITLE22=The Only Trouble With Me
TTITLE23=Spanish Two Step (Previously Unreleased - Bonus Track)
TTITLE24=Worried, Unhappy, Lonesome, and Sorry (Bonus Track)
EXTD=
EXTT0=
EXTT1=
EXTT2=
EXTT3=
EXTT4=
EXTT5=
EXTT6=
EXTT7=
EXTT8=
EXTT9=
EXTT10=
EXTT11=
EXTT12=
EXTT13=
EXTT14=
EXTT15=
EXTT16=
EXTT17=
EXTT18=
EXTT19=
EXTT20=
EXTT21=
EXTT22=
EXTT23=
EXTT24=
PLAYORDER=
